<svg width="130" height="100" viewBox="0 0 130 100" fill="none" xmlns="http://www.w3.org/2000/svg">
<path d="M84.3 30.3667L56.0667 77.5C55.4846 78.5081 55.1766 79.651 55.1733 80.8151C55.17 81.9791 55.4716 83.1238 56.0481 84.1351C56.6245 85.1464 57.4558 85.9892 58.459 86.5795C59.4623 87.1699 60.6027 87.4872 61.7667 87.5H118.233C119.397 87.4872 120.538 87.1699 121.541 86.5795C122.544 85.9892 123.375 85.1464 123.952 84.1351C124.528 83.1238 124.83 81.9791 124.827 80.8151C124.823 79.651 124.515 78.5081 123.933 77.5L95.7 30.3667C95.1058 29.387 94.2691 28.5771 93.2707 28.015C92.2722 27.4528 91.1458 27.1575 90 27.1575C88.8542 27.1575 87.7278 27.4528 86.7294 28.015C85.7309 28.5771 84.8942 29.387 84.3 30.3667Z" stroke="#00FFFF" stroke-width="4" stroke-linecap="round" stroke-linejoin="round"/>
<path d="M42.875 16.0833L7.58333 75C6.8557 76.2601 6.47069 77.6888 6.46662 79.1438C6.46254 80.5989 6.83954 82.0297 7.56011 83.2939C8.28067 84.558 9.31969 85.6115 10.5738 86.3494C11.8279 87.0873 13.2533 87.484 14.7083 87.5H85.2917C86.7467 87.484 88.1721 87.0873 89.4262 86.3494C90.6803 85.6115 91.7193 84.558 92.4399 83.2939C93.1604 82.0297 93.5374 80.5989 93.5334 79.1438C93.5293 77.6888 93.1443 76.2601 92.4167 75L57.125 16.0833C56.3822 14.8588 55.3363 13.8463 54.0883 13.1437C52.8403 12.441 51.4322 12.0719 50 12.0719C48.5678 12.0719 47.1597 12.441 45.9117 13.1437C44.6637 13.8463 43.6178 14.8588 42.875 16.0833Z" stroke="#00FFFF" stroke-width="4" stroke-linecap="round" stroke-linejoin="round"/>
</svg>
