<svg width="200" height="100" viewBox="0 0 200 100" fill="none" xmlns="http://www.w3.org/2000/svg">
<path d="M113.502 40.2597L93.2393 63.9448C92.8215 64.4513 92.6004 65.0257 92.5981 65.6106C92.5958 66.1956 92.8122 66.7708 93.2259 67.279C93.6397 67.7872 94.2362 68.2107 94.9563 68.5073C95.6763 68.804 96.4948 68.9635 97.3302 68.9699H137.857C138.692 68.9635 139.51 68.804 140.23 68.5073C140.95 68.2107 141.547 67.7872 141.961 67.279C142.374 66.7708 142.591 66.1956 142.589 65.6106C142.586 65.0257 142.365 64.4513 141.947 63.9448L121.684 40.2597C121.258 39.7674 120.657 39.3604 119.941 39.0779C119.224 38.7954 118.416 38.647 117.593 38.647C116.771 38.647 115.963 38.7954 115.246 39.0779C114.529 39.3604 113.929 39.7674 113.502 40.2597Z" stroke="#00FFFF" stroke-width="4" stroke-linecap="round" stroke-linejoin="round"/>
<path d="M83.7716 33.0821L58.4426 62.6884C57.9204 63.3217 57.6441 64.0396 57.6411 64.7708C57.6382 65.502 57.9088 66.221 58.4259 66.8562C58.9431 67.4915 59.6888 68.0208 60.5889 68.3916C61.4889 68.7625 62.512 68.9618 63.5562 68.9699H114.214C115.258 68.9618 116.281 68.7625 117.182 68.3916C118.082 68.0208 118.827 67.4915 119.344 66.8562C119.862 66.221 120.132 65.502 120.129 64.7708C120.126 64.0396 119.85 63.3217 119.328 62.6884L93.9988 33.0821C93.4657 32.4667 92.7151 31.958 91.8194 31.6049C90.9237 31.2518 89.9131 31.0663 88.8852 31.0663C87.8573 31.0663 86.8467 31.2518 85.951 31.6049C85.0553 31.958 84.3047 32.4667 83.7716 33.0821Z" stroke="#00FFFF" stroke-width="4" stroke-linecap="round" stroke-linejoin="round"/>
</svg>
