<svg width="100" height="100" viewBox="0 0 100 100" fill="none" xmlns="http://www.w3.org/2000/svg">
<path d="M87.5 66.6667V33.3334C87.4985 31.872 87.1127 30.4367 86.3814 29.1716C85.6501 27.9064 84.5989 26.8557 83.3333 26.125L54.1667 9.45837C52.8998 8.72697 51.4628 8.34192 50 8.34192C48.5372 8.34192 47.1002 8.72697 45.8333 9.45837L16.6667 26.125C15.4011 26.8557 14.3499 27.9064 13.6186 29.1716C12.8873 30.4367 12.5015 31.872 12.5 33.3334V66.6667C12.5015 68.1281 12.8873 69.5633 13.6186 70.8285C14.3499 72.0937 15.4011 73.1444 16.6667 73.875L45.8333 90.5417C47.1002 91.2731 48.5372 91.6582 50 91.6582C51.4628 91.6582 52.8998 91.2731 54.1667 90.5417L83.3333 73.875C84.5989 73.1444 85.6501 72.0937 86.3814 70.8285C87.1127 69.5633 87.4985 68.1281 87.5 66.6667Z" fill="white" stroke="#00FFFF" stroke-width="2" stroke-linecap="round" stroke-linejoin="round"/>
<path d="M50 70C49.5333 70 49.1333 69.8667 48.8 69.6C48.4667 69.3333 48.2167 68.9833 48.05 68.55C47.4167 66.6833 46.6167 64.9333 45.65 63.3C44.7167 61.6667 43.4 59.75 41.7 57.55C40 55.35 38.6167 53.25 37.55 51.25C36.5167 49.25 36 46.8333 36 44C36 40.1 37.35 36.8 40.05 34.1C42.7833 31.3667 46.1 30 50 30C53.9 30 57.2 31.3667 59.9 34.1C62.6333 36.8 64 40.1 64 44C64 47.0333 63.4167 49.5667 62.25 51.6C61.1167 53.6 59.8 55.5833 58.3 57.55C56.5 59.95 55.1333 61.95 54.2 63.55C53.3 65.1167 52.55 66.7833 51.95 68.55C51.7833 69.0167 51.5167 69.3833 51.15 69.65C50.8167 69.8833 50.4333 70 50 70ZM50 49C51.4 49 52.5833 48.5167 53.55 47.55C54.5167 46.5833 55 45.4 55 44C55 42.6 54.5167 41.4167 53.55 40.45C52.5833 39.4833 51.4 39 50 39C48.6 39 47.4167 39.4833 46.45 40.45C45.4833 41.4167 45 42.6 45 44C45 45.4 45.4833 46.5833 46.45 47.55C47.4167 48.5167 48.6 49 50 49Z" fill="#00FFFF"/>
</svg>
