<svg width="100" height="100" viewBox="0 0 100 100" fill="none" xmlns="http://www.w3.org/2000/svg">
<path d="M87.5 66.6667V33.3333C87.4985 31.872 87.1127 30.4367 86.3814 29.1715C85.6501 27.9063 84.5989 26.8557 83.3333 26.125L54.1667 9.45833C52.8998 8.72692 51.4628 8.34187 50 8.34187C48.5372 8.34187 47.1002 8.72692 45.8333 9.45833L16.6667 26.125C15.4011 26.8557 14.3499 27.9063 13.6186 29.1715C12.8873 30.4367 12.5015 31.872 12.5 33.3333V66.6667C12.5015 68.128 12.8873 69.5633 13.6186 70.8285C14.3499 72.0937 15.4011 73.1443 16.6667 73.875L45.8333 90.5417C47.1002 91.2731 48.5372 91.6581 50 91.6581C51.4628 91.6581 52.8998 91.2731 54.1667 90.5417L83.3333 73.875C84.5989 73.1443 85.6501 72.0937 86.3814 70.8285C87.1127 69.5633 87.4985 68.128 87.5 66.6667Z" fill="#18181B" stroke="#900B09" stroke-width="2" stroke-linecap="round" stroke-linejoin="round"/>
<path d="M50 31.38L61.32 42.7C63.5587 44.9372 65.0836 47.7881 65.7018 50.8921C66.32 53.9961 66.0038 57.2137 64.7931 60.1379C63.5824 63.0622 61.5316 65.5616 58.9002 67.3202C56.2688 69.0788 53.175 70.0174 50.01 70.0174C46.8451 70.0174 43.7512 69.0788 41.1198 67.3202C38.4884 65.5616 36.4376 63.0622 35.2269 60.1379C34.0162 57.2137 33.7 53.9961 34.3182 50.8921C34.9364 47.7881 36.4613 44.9372 38.7 42.7L50 31.38Z" stroke="#900B09" stroke-width="2" stroke-linecap="round" stroke-linejoin="round"/>
</svg>
