<svg width="373" height="202" viewBox="0 0 373 202" fill="none" xmlns="http://www.w3.org/2000/svg">
<line y1="91.5" x2="373" y2="91.5" stroke="#383838"/>
<line x1="-4.37114e-08" y1="51.5" x2="360" y2="51.5" stroke="#383838"/>
<line x1="116" y1="11.5" x2="373" y2="11.5" stroke="#383838"/>
<line x1="37" y1="128.5" x2="373" y2="128.5" stroke="#383838"/>
<line x1="4.37114e-08" y1="167.5" x2="157" y2="167.5" stroke="#383838"/>
<line x1="37.5" y1="-2.18557e-08" x2="37.5" y2="202" stroke="#383838"/>
<line x1="77.5" y1="52" x2="77.5" y2="202" stroke="#383838"/>
<line x1="117.5" y1="12" x2="117.5" y2="168" stroke="#383838"/>
<line x1="157.5" y1="12" x2="157.5" y2="168" stroke="#383838"/>
<line x1="197.5" y1="12" x2="197.5" y2="129" stroke="#383838"/>
<line x1="237.5" y1="12" x2="237.5" y2="129" stroke="#383838"/>
<line x1="277.5" y1="12" x2="277.5" y2="129" stroke="#383838"/>
<line x1="317.5" y1="12" x2="317.5" y2="202" stroke="#383838"/>
<circle cx="318" cy="52" r="5" fill="#757575"/>
<circle cx="278" cy="128" r="5" fill="#757575"/>
<circle cx="38" cy="168" r="5" fill="#757575"/>
<circle cx="78" cy="91" r="5" fill="#757575"/>
<circle opacity="0.05" cx="191" cy="88" r="75" fill="#2C2C2C"/>
<path d="M247.25 113V63C247.248 60.808 246.669 58.6551 245.572 56.7573C244.475 54.8595 242.898 53.2835 241 52.1875L197.25 27.1875C195.35 26.0904 193.194 25.5128 191 25.5128C188.806 25.5128 186.65 26.0904 184.75 27.1875L141 52.1875C139.102 53.2835 137.525 54.8595 136.428 56.7573C135.331 58.6551 134.752 60.808 134.75 63V113C134.752 115.192 135.331 117.345 136.428 119.243C137.525 121.141 139.102 122.716 141 123.812L184.75 148.812C186.65 149.91 188.806 150.487 191 150.487C193.194 150.487 195.35 149.91 197.25 148.812L241 123.812C242.898 122.716 244.475 121.141 245.572 119.243C246.669 117.345 247.248 115.192 247.25 113Z" fill="white" stroke="#757575" stroke-width="2" stroke-linecap="round" stroke-linejoin="round"/>
<path d="M217.52 65.83C215.988 64.297 214.168 63.0809 212.166 62.2512C210.164 61.4215 208.017 60.9945 205.85 60.9945C203.683 60.9945 201.536 61.4215 199.534 62.2512C197.532 63.0809 195.712 64.297 194.18 65.83L191 69.01L187.82 65.83C184.725 62.7349 180.527 60.9961 176.15 60.9961C171.773 60.9961 167.575 62.7349 164.48 65.83C161.385 68.9251 159.646 73.1229 159.646 77.5C159.646 81.8771 161.385 86.0749 164.48 89.17L191 115.69L217.52 89.17C219.053 87.6377 220.269 85.8184 221.099 83.816C221.928 81.8137 222.355 79.6674 222.355 77.5C222.355 75.3325 221.928 73.1863 221.099 71.1839C220.269 69.1815 219.053 67.3623 217.52 65.83Z" stroke="#757575" stroke-width="2" stroke-linecap="round" stroke-linejoin="round"/>
<path d="M199.375 88H192.125L186.688 97L175.813 79L170.375 88H163.125" stroke="#757575" stroke-width="2" stroke-linecap="round" stroke-linejoin="round"/>
</svg>
