<svg width="100" height="100" viewBox="0 0 100 100" fill="none" xmlns="http://www.w3.org/2000/svg">
<path d="M87.5 66.6666V33.3333C87.4985 31.872 87.1127 30.4367 86.3814 29.1715C85.6501 27.9063 84.5989 26.8557 83.3333 26.125L54.1667 9.45831C52.8998 8.72691 51.4628 8.34186 50 8.34186C48.5372 8.34186 47.1002 8.72691 45.8333 9.45831L16.6667 26.125C15.4011 26.8557 14.3499 27.9063 13.6186 29.1715C12.8873 30.4367 12.5015 31.872 12.5 33.3333V66.6666C12.5015 68.128 12.8873 69.5633 13.6186 70.8285C14.3499 72.0937 15.4011 73.1443 16.6667 73.875L45.8333 90.5416C47.1002 91.273 48.5372 91.6581 50 91.6581C51.4628 91.6581 52.8998 91.273 54.1667 90.5416L83.3333 73.875C84.5989 73.1443 85.6501 72.0937 86.3814 70.8285C87.1127 69.5633 87.4985 68.128 87.5 66.6666Z" fill="white" stroke="#BF6A02" stroke-width="2" stroke-linecap="round" stroke-linejoin="round"/>
<path d="M54 55.52V33C54 31.6739 53.4732 30.4021 52.5355 29.4645C51.5979 28.5268 50.3261 28 49 28C47.6739 28 46.4021 28.5268 45.4645 29.4645C44.5268 30.4021 44 31.6739 44 33V55.52C42.3946 56.5927 41.1766 58.1532 40.5261 59.9712C39.8756 61.7891 39.827 63.7681 40.3875 65.6158C40.948 67.4635 42.0878 69.082 43.6387 70.2322C45.1895 71.3824 47.0692 72.0033 49 72.0033C50.9308 72.0033 52.8105 71.3824 54.3613 70.2322C55.9122 69.082 57.052 67.4635 57.6125 65.6158C58.173 63.7681 58.1244 61.7891 57.4739 59.9712C56.8234 58.1532 55.6054 56.5927 54 55.52Z" stroke="#BF6A02" stroke-width="2" stroke-linecap="round" stroke-linejoin="round"/>
</svg>
